# xmcd CD database file generated by OrangeCD 5.2
#
# Track frame offsets:
#	225
#	13680
#	30842
#	44551
#	60277
#	75919
#	93050
#	101272
#	116104
#	135036
#	153577
#	169131
#	186913
#	202265
#	220504
#	231398
#	247184
#	259109
#	267582
#	277879
#	293761
#	301373
#
# Disc length: 4082 seconds
#
# Revision: 1
# Processed by: cddbd v1.5.1PL2 Copyright (c) Steve Scherf et al.
# Submitted via: OrangeCD 5.2
#
DISCID=2a0fef16
DTITLE=Maciej Malenczuk - Pan Malenczuk
DYEAR=1998
DGENRE=Acoustic
TTITLE0=Pan Malenczuk
TTITLE1=Czlowiek Z Wiekiem Do Trumny
TTITLE2=Edek Leszczyk
TTITLE3=Mani Mani
TTITLE4=Nobody
TTITLE5=Rebeka I Zenek
TTITLE6=Pierwszy Dzien W Pudle
TTITLE7=Recydywa I Ja
TTITLE8=Villon
TTITLE9=Syf
TTITLE10=Jozef Kania
TTITLE11=Nikt Z Nikad
TTITLE12=Zima Zima
TTITLE13=Mirek Jankowski
TTITLE14=Ach Prosze Pani
TTITLE15=Postacie
TTITLE16=Luty 1989
TTITLE17=Swieto Kobiet
TTITLE18=Armia
TTITLE19=Sierpien W Krakowie
TTITLE20=Soffe U
TTITLE21=W Tym Miescie Trudno Jest Zyc
EXTD=
EXTT0=
EXTT1=
EXTT2=
EXTT3=
EXTT4=
EXTT5=
EXTT6=
EXTT7=
EXTT8=
EXTT9=
EXTT10=
EXTT11=
EXTT12=
EXTT13=
EXTT14=
EXTT15=
EXTT16=
EXTT17=
EXTT18=
EXTT19=
EXTT20=
EXTT21=
PLAYORDER=
